<?xml version="1.0" standalone="no"?>
<!DOCTYPE svg PUBLIC "-//W3C//DTD SVG 20010904//EN"
 "http://www.w3.org/TR/2001/REC-SVG-20010904/DTD/svg10.dtd">
<svg version="1.0" xmlns="http://www.w3.org/2000/svg"
 width="1280.000000pt" height="884.000000pt" viewBox="0 0 1280.000000 884.000000"
 preserveAspectRatio="xMidYMid meet">
<g transform="translate(0.000000,884.000000) scale(0.100000,-0.100000)"
fill="#000000" stroke="none">
<path d="M5935 8814 c-107 -29 -158 -58 -223 -124 -58 -59 -104 -148 -133
-257 -19 -68 -22 -117 -28 -373 -6 -275 -8 -298 -28 -343 l-22 -48 -73 7 c-78
7 -129 -3 -283 -53 -267 -86 -544 -277 -725 -499 -33 -40 -110 -151 -171 -246
-131 -205 -273 -407 -455 -650 l-133 -176 -128 -73 c-138 -79 -653 -340 -848
-431 l-119 -56 54 -5 c30 -3 152 -13 270 -22 261 -20 280 -23 280 -42 0 -7
-38 -67 -84 -131 -257 -360 -317 -520 -317 -853 0 -170 12 -278 48 -441 l26
-118 -27 -522 c-15 -288 -31 -527 -35 -531 -5 -5 -37 10 -71 34 -174 119 -529
221 -1085 314 -145 24 -443 65 -471 65 -8 0 -20 16 -28 34 -11 26 -28 42 -68
62 -29 14 -94 53 -145 86 -50 32 -106 63 -124 68 -84 24 -185 -44 -309 -211
-71 -95 -392 -610 -415 -664 -24 -59 -65 -239 -65 -287 0 -62 45 -233 74 -282
13 -23 36 -48 50 -56 43 -22 70 -2 115 89 69 137 168 237 361 365 116 77 312
176 349 176 16 0 60 -6 98 -14 37 -8 111 -19 162 -26 222 -26 478 -106 1076
-335 412 -158 657 -233 796 -242 67 -5 83 -3 131 19 187 86 389 443 584 1033
47 144 77 221 87 223 31 6 87 -102 167 -323 54 -147 130 -393 130 -418 0 -9
-24 -52 -53 -95 -142 -207 -246 -440 -460 -1023 -58 -157 -133 -352 -167 -434
-110 -263 -136 -417 -127 -744 5 -176 9 -206 24 -223 19 -22 33 -22 213 1 343
42 701 52 905 25 157 -21 265 -15 338 19 85 38 110 101 61 150 -29 29 -45 33
-169 42 -265 18 -638 127 -675 195 -13 25 -1 96 37 203 13 40 31 116 39 171
42 291 171 548 600 1188 246 365 345 527 370 600 65 188 -63 560 -489 1433
-172 352 -170 341 -117 470 18 44 45 114 61 157 83 225 201 390 370 518 44 33
91 63 104 66 15 4 51 -7 103 -30 157 -69 357 -89 822 -83 179 2 341 8 361 12
41 8 62 -1 121 -48 47 -38 77 -31 119 26 17 23 36 45 43 49 18 10 757 11 766
1 5 -4 81 -287 170 -628 89 -341 247 -946 352 -1345 191 -728 508 -1994 508
-2026 0 -9 -17 -40 -38 -68 -55 -72 -76 -111 -108 -196 -26 -70 -28 -85 -28
-220 0 -131 3 -152 26 -218 166 -463 743 -614 1097 -286 154 143 224 298 224
499 0 141 -28 243 -98 359 -19 32 -32 62 -29 67 8 14 1164 12 1164 -2 0 -6
-16 -37 -35 -68 -61 -98 -88 -190 -93 -318 -8 -195 47 -353 168 -486 214 -233
536 -292 820 -150 111 56 233 180 289 293 61 125 74 190 69 334 -4 87 -11 139
-26 186 -53 161 -185 316 -332 389 -166 82 -35 75 -1523 78 l-1328 3 -9 23
c-18 42 -210 839 -204 848 3 5 779 9 1874 9 l1868 0 6 22 c298 1128 621 2369
618 2373 -3 2 -552 2 -1221 0 -3254 -13 -3757 -14 -3768 -7 -6 4 -57 183 -114
397 -56 215 -103 392 -105 394 -2 2 -201 3 -443 2 l-440 -2 -6 45 c-15 98 -94
122 -370 111 -263 -10 -277 -10 -388 19 -230 59 -375 174 -402 319 -7 34 -3
40 53 104 187 211 271 466 288 868 4 102 11 157 20 172 20 32 263 243 301 261
34 16 54 13 163 -27 71 -26 140 -27 171 -2 20 16 23 27 22 77 -1 47 3 63 19
81 17 18 19 30 14 61 -5 35 -3 42 19 56 19 13 25 25 27 68 l3 53 45 3 c24 2
51 9 58 15 20 16 8 86 -28 162 -35 73 -35 73 -15 111 20 39 19 148 -3 257 -10
48 -16 90 -13 92 2 3 26 5 53 5 l50 0 -7 33 c-22 99 -88 210 -167 282 -66 60
-189 120 -285 139 -43 9 -100 21 -126 26 -76 16 -155 11 -252 -16z m5657
-4416 c14 -12 7 -49 -76 -366 -51 -194 -97 -357 -103 -363 -16 -16 -1141 -33
-1160 -18 -10 9 -13 81 -13 368 0 196 4 362 8 368 6 10 140 13 593 16 321 1
618 3 660 5 48 1 81 -2 91 -10z m864 -2 c3 -7 -37 -173 -88 -367 l-94 -354
-333 -9 c-227 -6 -336 -5 -343 2 -11 11 165 705 184 730 16 19 667 18 674 -2z
m-3798 -9 c17 -20 205 -748 195 -757 -12 -11 -789 -24 -796 -13 -8 13 -197
738 -197 756 0 8 6 18 13 20 6 3 184 6 393 6 303 1 384 -2 392 -12z m1422
-367 l0 -380 -67 -1 c-38 0 -268 -4 -513 -8 -245 -5 -452 -5 -460 0 -16 8
-211 735 -203 757 4 9 138 12 624 12 l619 0 0 -380z m2140 -532 c0 -26 -238
-935 -252 -960 -8 -17 -35 -18 -343 -18 -288 0 -335 2 -335 15 0 21 240 937
251 957 10 19 29 20 507 26 171 2 172 2 172 -20z m-862 3 c11 -6 -12 -105
-107 -472 -67 -255 -126 -474 -131 -486 l-10 -23 -429 0 c-382 0 -430 2 -435
16 -9 24 -7 927 3 942 8 13 132 17 1001 30 52 1 101 -2 108 -7z m-1280 -498
l2 -483 -379 0 c-353 0 -380 1 -385 18 -20 66 -236 904 -236 917 0 8 1 16 3
17 4 3 667 14 837 13 l155 0 3 -482z m-1168 445 c11 -27 240 -899 240 -917 0
-8 -107 -11 -400 -11 -370 0 -400 1 -409 18 -10 20 -229 858 -233 893 l-3 24
140 5 c77 3 256 7 398 8 l257 2 10 -22z m153 -2338 c73 -27 151 -90 198 -158
99 -141 99 -343 0 -484 -192 -276 -607 -239 -746 65 -107 234 14 506 262 588
78 26 204 21 286 -11z m2228 10 c159 -49 268 -177 299 -347 28 -157 -52 -333
-192 -423 -172 -112 -392 -88 -537 57 -168 169 -172 420 -11 596 51 56 140
110 206 126 68 16 168 12 235 -9z"/>
</g>
</svg>
